HIERARCHY
ROOT mixamorig:Hips
{
	OFFSET 0.000000 99.672096 0.000000
	CHANNELS 6 Xposition Yposition Zposition Xrotation Yrotation Zrotation
	JOINT mixamorig:Spine
	{
		OFFSET 0.000000 9.923500 -1.227300
		CHANNELS 3 Xrotation Yrotation Zrotation
		JOINT mixamorig:Spine1
		{
			OFFSET -0.000100 11.645401 -1.422300
			CHANNELS 3 Xrotation Yrotation Zrotation
			JOINT mixamorig:Spine2
			{
				OFFSET 0.000100 13.360199 -1.626500
				CHANNELS 3 Xrotation Yrotation Zrotation
				JOINT mixamorig:Neck
				{
					OFFSET 0.000000 15.032501 0.792900
					CHANNELS 3 Xrotation Yrotation Zrotation
					JOINT mixamorig:Head
					{
						OFFSET 0.000000 10.321808 3.142400
						CHANNELS 3 Xrotation Yrotation Zrotation
						JOINT mixamorig:HeadTop_End
						{
							OFFSET 0.000200 18.474701 6.636400
							CHANNELS 3 Xrotation Yrotation Zrotation
							End Site
							{
								OFFSET 0.000000 14.732208 0.000000
							}
						}
						JOINT mixamorig:LeftEye
						{
							OFFSET 2.947900 7.681702 9.120700
							CHANNELS 3 Xrotation Yrotation Zrotation
							End Site
							{
								OFFSET 0.000000 14.732208 0.000000
							}
						}
						JOINT mixamorig:RightEye
						{
							OFFSET -2.944500 7.681702 9.120500
							CHANNELS 3 Xrotation Yrotation Zrotation
							End Site
							{
								OFFSET 0.000000 14.732208 0.000000
							}
						}
					}
				}
				JOINT mixamorig:LeftShoulder
				{
					OFFSET 6.105800 9.110397 0.705600
					CHANNELS 3 Xrotation Yrotation Zrotation
					JOINT mixamorig:LeftArm
					{
						OFFSET 12.654999 -0.265900 -2.600900
						CHANNELS 3 Xrotation Yrotation Zrotation
						JOINT mixamorig:LeftForeArm
						{
							OFFSET 27.404697 0.000000 0.000000
							CHANNELS 3 Xrotation Yrotation Zrotation
							JOINT mixamorig:LeftHand
							{
								OFFSET 27.614502 0.000000 0.000000
								CHANNELS 3 Xrotation Yrotation Zrotation
								JOINT mixamorig:LeftHandMiddle1
								{
									OFFSET 12.775497 0.000000 0.000000
									CHANNELS 3 Xrotation Yrotation Zrotation
									JOINT mixamorig:LeftHandMiddle2
									{
										OFFSET 3.613998 0.000000 0.000000
										CHANNELS 3 Xrotation Yrotation Zrotation
										JOINT mixamorig:LeftHandMiddle3
										{
											OFFSET 3.459801 0.000000 0.000000
											CHANNELS 3 Xrotation Yrotation Zrotation
											JOINT mixamorig:LeftHandMiddle4
											{
												OFFSET 3.680199 0.000000 0.000000
												CHANNELS 3 Xrotation Yrotation Zrotation
												End Site
												{
													OFFSET 0.000000 3.680206 0.000190
												}
											}
										}
									}
								}
								JOINT mixamorig:LeftHandThumb1
								{
									OFFSET 3.788803 -2.167160 3.002988
									CHANNELS 3 Xrotation Yrotation Zrotation
									JOINT mixamorig:LeftHandThumb2
									{
										OFFSET 3.675407 -2.121994 2.121996
										CHANNELS 3 Xrotation Yrotation Zrotation
										JOINT mixamorig:LeftHandThumb3
										{
											OFFSET 3.394394 -1.959747 1.959755
											CHANNELS 3 Xrotation Yrotation Zrotation
											JOINT mixamorig:LeftHandThumb4
											{
												OFFSET 2.679367 -1.546936 1.546931
												CHANNELS 3 Xrotation Yrotation Zrotation
												End Site
												{
													OFFSET -0.000023 3.459045 0.000107
												}
											}
										}
									}
								}
								JOINT mixamorig:LeftHandIndex1
								{
									OFFSET 12.266602 -0.231842 2.822088
									CHANNELS 3 Xrotation Yrotation Zrotation
									JOINT mixamorig:LeftHandIndex2
									{
										OFFSET 3.891998 0.000000 0.000000
										CHANNELS 3 Xrotation Yrotation Zrotation
										JOINT mixamorig:LeftHandIndex3
										{
											OFFSET 3.415199 0.000000 0.000000
											CHANNELS 3 Xrotation Yrotation Zrotation
											JOINT mixamorig:LeftHandIndex4
											{
												OFFSET 3.078003 0.000000 0.000000
												CHANNELS 3 Xrotation Yrotation Zrotation
												End Site
												{
													OFFSET 0.000000 3.078003 0.000159
												}
											}
										}
									}
								}
								JOINT mixamorig:LeftHandRing1
								{
									OFFSET 12.147003 0.010010 -2.216599
									CHANNELS 3 Xrotation Yrotation Zrotation
									JOINT mixamorig:LeftHandRing2
									{
										OFFSET 3.601196 0.000000 0.000000
										CHANNELS 3 Xrotation Yrotation Zrotation
										JOINT mixamorig:LeftHandRing3
										{
											OFFSET 3.307297 0.000000 0.000000
											CHANNELS 3 Xrotation Yrotation Zrotation
											JOINT mixamorig:LeftHandRing4
											{
												OFFSET 3.660103 0.000000 0.000000
												CHANNELS 3 Xrotation Yrotation Zrotation
												End Site
												{
													OFFSET 0.000000 3.660095 0.000189
												}
											}
										}
									}
								}
								JOINT mixamorig:LeftHandPinky1
								{
									OFFSET 10.908203 -0.226151 -4.725812
									CHANNELS 3 Xrotation Yrotation Zrotation
									JOINT mixamorig:LeftHandPinky2
									{
										OFFSET 4.136703 0.000000 0.000000
										CHANNELS 3 Xrotation Yrotation Zrotation
										JOINT mixamorig:LeftHandPinky3
										{
											OFFSET 2.594803 0.000000 0.000000
											CHANNELS 3 Xrotation Yrotation Zrotation
											JOINT mixamorig:LeftHandPinky4
											{
												OFFSET 2.923897 0.000000 0.000000
												CHANNELS 3 Xrotation Yrotation Zrotation
												End Site
												{
													OFFSET 0.000000 2.923904 0.000151
												}
											}
										}
									}
								}
							}
						}
					}
				}
				JOINT mixamorig:RightShoulder
				{
					OFFSET -6.105700 9.110504 0.705600
					CHANNELS 3 Xrotation Yrotation Zrotation
					JOINT mixamorig:RightArm
					{
						OFFSET -12.655001 -0.266006 -2.600900
						CHANNELS 3 Xrotation Yrotation Zrotation
						JOINT mixamorig:RightForeArm
						{
							OFFSET -27.404697 0.000000 0.000000
							CHANNELS 3 Xrotation Yrotation Zrotation
							JOINT mixamorig:RightHand
							{
								OFFSET -27.614502 0.000000 0.000000
								CHANNELS 3 Xrotation Yrotation Zrotation
								JOINT mixamorig:RightHandMiddle1
								{
									OFFSET -12.775497 0.000000 0.000000
									CHANNELS 3 Xrotation Yrotation Zrotation
									JOINT mixamorig:RightHandMiddle2
									{
										OFFSET -3.613998 0.000000 0.000000
										CHANNELS 3 Xrotation Yrotation Zrotation
										JOINT mixamorig:RightHandMiddle3
										{
											OFFSET -3.459801 0.000000 0.000000
											CHANNELS 3 Xrotation Yrotation Zrotation
											JOINT mixamorig:RightHandMiddle4
											{
												OFFSET -3.680199 0.000000 0.000000
												CHANNELS 3 Xrotation Yrotation Zrotation
												End Site
												{
													OFFSET 0.000000 3.680206 0.000190
												}
											}
										}
									}
								}
								JOINT mixamorig:RightHandThumb1
								{
									OFFSET -3.788803 -2.167160 3.002988
									CHANNELS 3 Xrotation Yrotation Zrotation
									JOINT mixamorig:RightHandThumb2
									{
										OFFSET -3.675407 -2.121994 2.121996
										CHANNELS 3 Xrotation Yrotation Zrotation
										JOINT mixamorig:RightHandThumb3
										{
											OFFSET -3.394394 -1.959747 1.959755
											CHANNELS 3 Xrotation Yrotation Zrotation
											JOINT mixamorig:RightHandThumb4
											{
												OFFSET -2.679367 -1.546936 1.546931
												CHANNELS 3 Xrotation Yrotation Zrotation
												End Site
												{
													OFFSET 0.000023 3.459045 0.000107
												}
											}
										}
									}
								}
								JOINT mixamorig:RightHandIndex1
								{
									OFFSET -12.266602 -0.231842 2.822088
									CHANNELS 3 Xrotation Yrotation Zrotation
									JOINT mixamorig:RightHandIndex2
									{
										OFFSET -3.891998 0.000000 0.000000
										CHANNELS 3 Xrotation Yrotation Zrotation
										JOINT mixamorig:RightHandIndex3
										{
											OFFSET -3.415199 0.000000 0.000000
											CHANNELS 3 Xrotation Yrotation Zrotation
											JOINT mixamorig:RightHandIndex4
											{
												OFFSET -3.078003 0.000000 0.000000
												CHANNELS 3 Xrotation Yrotation Zrotation
												End Site
												{
													OFFSET 0.000000 3.078003 0.000159
												}
											}
										}
									}
								}
								JOINT mixamorig:RightHandRing1
								{
									OFFSET -12.147003 0.010010 -2.216599
									CHANNELS 3 Xrotation Yrotation Zrotation
									JOINT mixamorig:RightHandRing2
									{
										OFFSET -3.601204 0.000000 0.000000
										CHANNELS 3 Xrotation Yrotation Zrotation
										JOINT mixamorig:RightHandRing3
										{
											OFFSET -3.307297 0.000000 0.000000
											CHANNELS 3 Xrotation Yrotation Zrotation
											JOINT mixamorig:RightHandRing4
											{
												OFFSET -3.660103 0.000000 0.000000
												CHANNELS 3 Xrotation Yrotation Zrotation
												End Site
												{
													OFFSET 0.000000 3.660095 0.000189
												}
											}
										}
									}
								}
								JOINT mixamorig:RightHandPinky1
								{
									OFFSET -10.908203 -0.226151 -4.725812
									CHANNELS 3 Xrotation Yrotation Zrotation
									JOINT mixamorig:RightHandPinky2
									{
										OFFSET -4.136703 0.000000 0.000000
										CHANNELS 3 Xrotation Yrotation Zrotation
										JOINT mixamorig:RightHandPinky3
										{
											OFFSET -2.594803 0.000000 0.000000
											CHANNELS 3 Xrotation Yrotation Zrotation
											JOINT mixamorig:RightHandPinky4
											{
												OFFSET -2.923897 0.000000 0.000000
												CHANNELS 3 Xrotation Yrotation Zrotation
												End Site
												{
													OFFSET 0.000000 2.923904 0.000151
												}
											}
										}
									}
								}
							}
						}
					}
				}
			}
		}
	}
	JOINT mixamorig:RightUpLeg
	{
		OFFSET -9.124500 -6.656403 -0.055400
		CHANNELS 3 Xrotation Yrotation Zrotation
		JOINT mixamorig:RightLeg
		{
			OFFSET -0.244700 -40.595402 -0.514500
			CHANNELS 3 Xrotation Yrotation Zrotation
			JOINT mixamorig:RightFoot
			{
				OFFSET 0.244700 -42.047901 -2.060200
				CHANNELS 3 Xrotation Yrotation Zrotation
				JOINT mixamorig:RightToeBase
				{
					OFFSET -0.373400 -10.492200 12.640700
					CHANNELS 3 Xrotation Yrotation Zrotation
					JOINT mixamorig:RightToe_End
					{
						OFFSET 0.000000 0.000000 9.992501
						CHANNELS 3 Xrotation Yrotation Zrotation
						End Site
						{
							OFFSET 0.000000 9.992500 0.000000
						}
					}
				}
			}
		}
	}
	JOINT mixamorig:LeftUpLeg
	{
		OFFSET 9.124500 -6.656403 -0.055400
		CHANNELS 3 Xrotation Yrotation Zrotation
		JOINT mixamorig:LeftLeg
		{
			OFFSET 0.244700 -40.595402 -0.517000
			CHANNELS 3 Xrotation Yrotation Zrotation
			JOINT mixamorig:LeftFoot
			{
				OFFSET -0.244700 -42.048000 -2.057600
				CHANNELS 3 Xrotation Yrotation Zrotation
				JOINT mixamorig:LeftToeBase
				{
					OFFSET 0.373400 -10.492200 12.640700
					CHANNELS 3 Xrotation Yrotation Zrotation
					JOINT mixamorig:LeftToe_End
					{
						OFFSET 0.000000 0.000000 9.992500
						CHANNELS 3 Xrotation Yrotation Zrotation
						End Site
						{
							OFFSET 0.000000 9.992500 0.000000
						}
					}
				}
			}
		}
	}
}
MOTION
Frames: 4
Frame Time: 0.033333
-4.080975 74.578384 -23.347752 53.816826 31.279804 -32.522195 57.087821 2.575770 -1.401848 13.621344 1.664037 2.332158 13.605676 2.050813 1.983902 -24.125224 -6.608067 -2.473486 -52.940861 -16.977709 7.313090 0.000003 0.000001 -0.000003 0.000003 0.000001 -0.000003 0.000003 0.000001 -0.000003 6.054194 -30.097577 7.662543 -45.076756 -32.606527 4.010685 0.000010 -46.678151 0.000027 -57.478671 -14.779267 36.007302 -0.019795 -2.352197 -1.254064 0.039869 0.682985 -6.680216 0.021289 0.499558 -4.880928 -0.000001 -0.000003 0.000001 -11.169167 -7.471290 -6.092650 12.093564 29.785461 -3.407617 -7.836396 -2.038878 13.233353 -0.000001 0.000000 -0.000002 -1.506613 -6.937522 -9.701248 0.031100 0.603449 -5.899290 0.004171 -0.221354 2.160582 0.000000 0.000000 0.000000 -0.302087 3.658129 11.217483 0.009674 0.336910 -3.289517 0.000964 0.106467 -1.039038 -0.000000 0.000001 -0.000000 -2.059572 11.324793 13.071467 0.001327 0.124993 -1.219820 0.003443 -0.201190 1.963662 0.000001 0.000002 -0.000002 4.387453 20.232680 -3.678088 -52.923745 39.496440 -0.793323 0.000011 54.191715 0.000009 -27.102699 0.242352 -28.761660 0.816997 1.151485 -15.235977 0.011521 -0.327781 4.027085 0.002182 -0.142452 1.748857 -0.000001 -0.000001 -0.000001 -8.869118 9.529780 -6.956875 8.915588 -20.287666 -1.033375 -6.154428 -3.897519 -14.586489 -0.000002 0.000000 -0.000000 1.328027 5.346929 -9.794412 0.001192 -0.104378 1.281276 0.000010 0.007861 -0.096380 -0.000001 0.000001 0.000001 -0.737739 -3.902759 -18.460857 0.000321 -0.054637 0.670703 0.003629 0.183913 -2.258068 -0.000001 -0.000001 -0.000001 -4.436502 -13.020044 -21.863379 0.001065 -0.099012 1.215500 0.006711 0.250352 -3.074809 -0.000002 -0.000000 0.000001 -76.176485 24.015915 -18.334572 66.154890 -8.138759 -8.533936 -13.002430 -21.659532 31.959005 -1.932822 -0.000001 0.000002 -0.000000 0.000001 0.000000 -81.677909 -19.724038 15.880743 61.742554 4.912242 8.887864 -17.744495 5.683027 -30.846261 -3.680461 -0.000005 0.000000 -0.000000 0.000000 -0.000000 
-5.325352 75.454857 -23.668274 50.242783 32.278716 -31.033555 53.199572 1.947459 -1.179370 13.836524 1.317153 2.309417 13.825693 1.650722 2.030382 -24.494855 -6.348578 -2.124395 -52.144178 -15.841142 8.505295 -0.000001 0.000000 -0.000000 -0.000001 0.000000 -0.000000 -0.000001 0.000000 -0.000000 5.105673 -27.155242 4.505051 -34.077709 -30.398491 8.097357 0.000015 -41.556691 -0.000003 -64.833706 -17.502056 24.682169 -0.600974 -1.392498 -9.207094 0.030855 0.601075 -5.876009 0.010548 0.351726 -3.434337 0.000001 0.000003 0.000000 -12.625233 -8.760030 -6.417097 11.513253 27.968327 -3.084452 -7.909899 -2.275332 13.244048 0.000002 0.000001 -0.000001 -2.271767 -5.783649 -15.253797 0.027956 0.572217 -5.592877 0.003442 -0.200886 1.960652 0.000001 -0.000001 0.000000 0.013795 3.645036 2.142785 0.009763 0.338445 -3.304553 0.000038 0.022000 -0.214638 0.000002 0.000000 0.000000 -0.354154 11.395368 3.097737 0.005324 0.250013 -2.440447 0.002348 -0.165788 1.617965 0.000001 0.000001 -0.000002 4.033502 21.011113 -1.872129 -42.084071 40.168476 -6.866515 -0.000013 49.606605 0.000036 -37.828627 3.189181 -12.464000 0.508790 0.819246 -9.562738 0.022736 -0.460208 5.658763 0.004676 -0.208824 2.564420 0.000000 -0.000002 -0.000000 -8.780090 9.373938 -8.417946 7.506044 -16.911769 -1.272983 -5.616065 -5.239558 -14.695722 0.000000 0.000001 -0.000001 1.308513 6.766437 -7.913519 0.003751 -0.186897 2.295059 0.000152 -0.036098 0.443112 -0.000000 -0.000001 -0.000002 -0.591399 -4.325996 -13.914804 0.004959 -0.215091 2.641312 0.001292 0.109678 -1.346601 -0.000001 -0.000001 -0.000001 -2.610896 -12.207102 -14.761835 0.032361 -0.548650 6.750963 0.001012 -0.097787 1.200453 0.000001 0.000000 0.000000 -74.688139 22.350054 -17.549413 65.352643 -8.444731 -7.950886 -12.570500 -19.566352 31.625685 -1.511868 0.000003 -0.000001 0.000000 0.000001 0.000001 -77.844274 -19.089559 17.397834 59.395530 4.059280 9.421130 -16.007049 5.588811 -30.765651 -4.078999 0.000010 -0.000008 0.000000 -0.000001 -0.000000 
-6.232483 76.090851 -23.692715 45.375890 33.137653 -28.572111 48.799031 1.396973 -0.908313 13.826420 1.132529 2.049913 13.820737 1.349485 1.789795 -23.909620 -6.090392 -1.862784 -50.967435 -15.119363 9.658087 -0.000001 0.000001 -0.000001 -0.000001 0.000001 -0.000001 -0.000001 0.000001 -0.000001 4.258327 -23.848065 0.488217 -22.027425 -29.953784 10.309139 -0.000011 -34.631245 -0.000007 -68.099124 -20.116736 14.424572 -0.815754 -0.730332 -13.367016 0.043406 0.712648 -6.971638 0.013707 0.400913 -3.915321 0.000002 -0.000001 -0.000000 -13.952224 -9.873359 -6.763909 11.147881 26.610851 -2.896055 -7.954723 -2.418113 13.250242 -0.000001 0.000000 -0.000002 -2.515801 -4.939866 -17.981194 0.032009 0.612265 -5.985790 0.000602 -0.084395 0.823534 -0.000002 -0.000003 -0.000001 0.119339 3.221171 -5.398565 0.020517 0.490421 -4.791372 0.000571 0.081969 -0.799869 0.000001 0.000000 -0.000000 0.659044 10.657183 -3.815707 0.018269 0.462888 -4.521773 0.000144 -0.040861 0.398725 0.000001 0.000000 -0.000000 3.743119 22.930236 1.702128 -26.524724 39.248985 -16.349163 -0.000025 42.888558 0.000009 -43.735487 4.685333 -0.163565 0.108668 -0.095090 -1.552875 0.060306 -0.747869 9.220871 0.019644 -0.427809 5.259151 -0.000000 0.000002 0.000001 -8.427201 8.635336 -9.951860 5.940327 -13.092025 -1.475635 -4.753417 -7.374236 -14.860161 -0.000001 -0.000000 0.000001 0.992625 7.939927 -5.017784 0.008313 -0.278470 3.420616 0.000860 -0.089188 1.094695 0.000000 0.000002 0.000000 -0.295754 -5.005758 -6.691208 0.036401 -0.581621 7.158526 0.002961 -0.166271 2.041540 -0.000001 0.000001 0.000000 -0.633826 -10.451059 -5.027817 0.127875 -1.084964 13.443116 0.029962 -0.527921 6.494785 -0.000000 0.000001 0.000000 -72.625340 20.367937 -16.874162 65.156323 -8.813446 -7.196250 -12.944737 -16.582632 31.241712 -1.095825 0.000020 -0.000005 -0.000000 -0.000000 -0.000000 -73.107094 -18.409440 19.594028 58.395064 3.075986 9.285744 -15.259578 5.864565 -29.925808 -4.672519 -0.000015 -0.000006 0.000000 -0.000000 -0.000000 
-6.801292 76.829048 -23.234596 39.831314 33.871099 -25.420928 44.053883 1.156420 -0.381829 13.626916 1.084470 1.768224 13.624772 1.154005 1.506697 -22.755342 -5.784713 -1.868178 -48.837147 -14.692618 10.241608 0.000002 -0.000002 0.000000 0.000002 -0.000002 0.000000 0.000002 -0.000002 0.000000 3.456652 -20.961190 -4.006149 -10.139245 -31.036250 10.742090 -0.000004 -27.155779 0.000015 -66.078979 -23.780781 6.862475 -0.762877 0.027628 -15.113475 0.082606 0.981386 -9.622774 0.031775 0.610016 -5.963722 0.000000 0.000001 -0.000000 -13.956872 -9.800222 -6.612338 11.006508 25.787982 -2.835890 -7.855981 -2.091062 13.235059 0.000002 0.000001 -0.000004 -2.325849 -3.949705 -18.696808 0.040546 0.688833 -6.737666 0.000517 0.077870 -0.759909 -0.000001 0.000001 0.000000 -0.011111 2.544354 -11.098501 0.050974 0.771988 -7.555615 0.006143 0.268499 -2.621025 -0.000001 -0.000000 -0.000000 1.079525 9.463082 -8.354316 0.044410 0.720769 -7.051656 0.001472 0.131517 -1.283500 0.000000 0.000000 0.000000 2.943077 23.529517 6.869908 -10.033839 39.598073 -24.061831 0.000006 32.836169 -0.000001 -39.534583 8.341159 4.933691 -0.069440 -1.493164 6.436353 0.124284 -1.069828 13.252045 0.050029 -0.681469 8.395828 0.000001 -0.000001 -0.000001 -8.179707 7.324941 -10.179245 5.650636 -12.355785 -1.450639 -4.186000 -8.767857 -14.961524 -0.000001 0.000001 -0.000001 0.163932 7.074345 -0.335472 0.016366 -0.390578 4.800154 0.002993 -0.166907 2.049283 0.000000 -0.000003 0.000000 0.128076 -4.959608 1.654761 0.105485 -0.986710 12.205570 0.024927 -0.481715 5.923881 -0.000000 0.000001 -0.000000 0.427842 -8.462487 3.364286 0.223790 -1.427738 17.815869 0.062556 -0.761533 9.390835 -0.000000 0.000001 0.000000 -69.489703 18.253290 -16.616389 64.990240 -8.888922 -6.526053 -13.888475 -13.552278 29.651357 -0.789131 0.000006 -0.000001 0.000000 -0.000001 0.000000 -67.192000 -16.839167 22.174476 56.970673 1.666838 9.154984 -15.020243 6.238069 -29.695579 -5.351793 0.000006 -0.000002 0.000001 -0.000002 -0.000000 
